<svg xmlns="http://www.w3.org/2000/svg" version="1.1" xmlns:xlink="http://www.w3.org/1999/xlink" xmlns:svgjs="http://svgjs.dev/svgjs" width="1000" height="1125" viewBox="0 0 1000 1125"><g transform="matrix(1,0,0,1,0.00017081513067296328,0)"><svg viewBox="0 0 320 360" data-background-color="#ffffff" preserveAspectRatio="xMidYMid meet" height="1125" width="1000" xmlns="http://www.w3.org/2000/svg" xmlns:xlink="http://www.w3.org/1999/xlink"><g id="tight-bounds" transform="matrix(1,0,0,1,0.00005466084189720277,0)"><svg viewBox="0 0 320 360" height="360" width="320"><g><svg></svg></g><g><svg viewBox="0 0 320 360" height="360" width="320"><g><path transform="translate(-119.39272,-98.31927) scale(5.58313,5.58313)" d="M36.7 23.5c0-0.2 0.1-0.4 0.3-0.4 0.2 0 0.4 0.1 0.4 0.4 0.1 0 0.3 0 0.4-0.1 0.4 0 0.8-0.1 1.1 0 0.3 0.1 0.5 0.1 0.8 0.2 0.3 0.1 0.5 0 0.7-0.1 0.4-0.1 0.7-0.3 1.1-0.4 0.2-0.1 0.3-0.1 0.5-0.1 0.2-0.1 0.4-0.1 0.7-0.2 0.5-0.1 1-0.2 1.4-0.4 0.4-0.2 0.8-0.2 1.2-0.3 0.2 0 0.3-0.1 0.5-0.2 0.1 0 0.1-0.1 0.2-0.2 0.2-0.1 0.3-0.2 0.5-0.1 0.1 0.1 0.3 0.1 0.4 0h0.1c0.6 0 1.2-0.1 1.9 0 0.1 0 0.2 0 0.2 0 0.3-0.2 0.7-0.2 1.1-0.2 0.1 0 0.3 0 0.4 0h0.1c0.4 0 0.8 0 1.1 0.1 0.3 0 0.5 0.1 0.8 0.2 0.3 0 0.5 0 0.8 0.1 0.2 0 0.4 0 0.6 0 0.1 0 0.2 0 0.2 0 0.4 0.1 0.8 0.1 1.2 0.1 0.3 0.1 0.6 0.2 1 0.2 0.1 0 0.2 0 0.3 0 0.1 0 0.2 0.1 0.3 0.1l0.1 0.1c0.4 0 0.7 0.2 1.1 0.2 0.1 0 0.3 0 0.4 0.1 0.3 0.2 0.7 0.3 1.1 0.3 0.2 0 0.3 0.1 0.4 0.2 0.3 0.1 0.5 0.2 0.8 0.3 0.2 0.1 0.4 0 0.6 0.1 0.3 0.1 0.7 0.2 1 0.5 0.2 0.2 0.4 0.2 0.7 0.4 0.1 0 0.2 0.1 0.3 0.2 0.3 0.2 0.6 0.4 0.9 0.5 0.1 0 0.2 0.1 0.3 0.1 0.3 0.2 0.6 0.5 1 0.7 0.2 0.1 0.3 0.2 0.5 0.3h0.1c0.3 0.3 0.7 0.5 1 0.8 0.3 0.3 0.5 0.5 0.9 0.7 0 0 0 0 0 0.1 0.1 0.2 0.2 0.3 0.4 0.4 0.2 0.1 0.3 0.2 0.4 0.3 0.3 0.2 0.6 0.4 0.8 0.6 0.1 0.1 0.2 0.2 0.4 0.4 0.1 0.1 0.2 0.2 0.3 0.2 0.4 0.1 0.6 0.4 0.9 0.7 0.2 0.2 0.5 0.5 0.7 0.7 0.1 0.1 0.2 0.3 0.3 0.5 0.2 0.6 0.5 1.2 0.8 1.7 0 0 0 0.1 0.1 0.2v0.1c0.2 0.2 0.3 0.5 0.5 0.7 0.1 0.1 0.1 0.2 0.2 0.3 0.2 0.3 0.3 0.7 0.5 1 0.3 0.5 0.5 1 0.7 1.5v0.1c0.1 0.2 0.2 0.4 0.3 0.7 0 0.2 0.2 0.4 0.3 0.7 0.1 0.5 0.4 1 0.5 1.6 0 0.1 0.1 0.2 0.1 0.4 0.1 0.3 0.2 0.6 0.3 0.9 0 0.1 0.1 0.2 0.2 0.3 0.2 0.2 0.2 0.4 0.2 0.6-0.1 0.4 0 0.8 0.1 1.2 0 0.1 0 0.2 0 0.4 0.1 0.4 0.2 0.9 0.2 1.3 0 0.1 0 0.3 0 0.4 0 0.3 0.1 0.6 0.3 0.9 0 0.1 0.1 0.1 0.1 0.1 0.1 0.1 0.2 0.3 0.3 0.4 0.1 0.1 0.1 0.1 0.2 0.2 0.2 0.2 0.3 0.4 0.3 0.7 0 0.1-0.1 0.3-0.1 0.4 0 0.1 0 0.3 0.1 0.4 0.1 0.1 0.1 0.2 0.1 0.3 0 0.1-0.1 0.2-0.2 0.2v0c-0.1 0.3-0.5 0.4-0.6 0.7-0.1 0.4-0.2 0.8-0.3 1.2-0.1 0.3-0.1 0.5-0.1 0.8 0 0.3-0.1 0.5-0.1 0.8-0.1 0.4-0.2 0.8-0.3 1.2 0 0.2-0.1 0.4-0.1 0.6 0.1 0.1 0.2 0.2 0.3 0.2 0.2 0.2 0.4 0.4 0.6 0.6 0.1 0.1 0.1 0.2 0 0.2-0.1 0.1-0.2 0.1-0.3 0.1-0.1-0.1-0.3-0.2-0.4-0.2-0.1-0.1-0.3-0.2-0.5-0.1 0 0.2-0.1 0.4-0.1 0.5-0.1 0.2-0.2 0.5-0.2 0.7-0.1 0.4-0.3 0.7-0.4 1.1-0.2 0.5-0.4 0.9-0.6 1.3-0.1 0.2-0.2 0.4-0.3 0.6v0c0 0.3-0.3 0.6-0.4 0.9-0.2 0.4-0.4 0.8-0.6 1.3-0.1 0.2-0.2 0.4-0.3 0.5-0.2 0.5-0.4 0.9-0.7 1.3-0.2 0.3-0.4 0.5-0.6 0.6-0.2 0.2-0.4 0.4-0.6 0.6-0.1 0.1-0.2 0.2-0.3 0.3-0.1 0.1-0.1 0.1-0.2 0.2-0.2 0.3-0.5 0.5-0.7 0.8-0.2 0.2-0.3 0.4-0.6 0.6-0.2 0.2-0.4 0.5-0.7 0.6-0.1 0.1-0.2 0.3-0.3 0.4-0.1 0.1-0.2 0.3-0.3 0.4 0 0.2 0.1 0.4 0.1 0.5 0 0.3-0.3 0.4-0.5 0.2-0.3-0.2-0.3-0.2-0.6 0-0.3 0.2-0.6 0.5-1 0.6-0.1 0-0.1 0.1-0.2 0.1-0.2 0.1-0.3 0.3-0.5 0.4-0.2 0.2-0.5 0.3-0.7 0.5-0.1 0.1-0.2 0.1-0.3 0.2-0.3 0.2-0.6 0.3-0.9 0.6-0.1 0.1-0.2 0.1-0.3 0.2 0 0.1 0 0.1 0 0.2 0 0.2-0.2 0.4-0.5 0.3-0.3-0.1-0.5 0-0.8 0-0.3 0.1-0.6 0.3-0.9 0.4-0.1 0-0.2 0.1-0.3 0.2-0.3 0.2-0.6 0.3-0.9 0.4-0.2 0-0.4 0.2-0.6 0.2-0.1 0-0.2 0.1-0.3 0.1h-0.1c-0.4 0.3-0.8 0.5-1.2 0.8-0.1 0-0.1 0.1-0.2 0.2-0.1 0.2-0.2 0.3-0.4 0.3-0.5 0-0.7 0.4-0.6 0.8 0 0.1 0.1 0.2 0.1 0.3 0.1 0.2 0 0.4-0.1 0.5-0.1 0.1-0.4 0.1-0.5-0.1-0.2-0.2-0.3-0.4-0.4-0.7-0.1-0.2-0.3-0.4-0.5-0.5-0.2-0.1-0.4-0.1-0.6 0-0.1 0-0.1 0.1-0.2 0.1-0.2 0.2-0.5 0.3-0.8 0.2-0.1 0-0.3 0-0.3 0.1-0.1 0.1-0.1 0.3 0 0.4 0.2 0.2 0.1 0.4 0.1 0.7 0 0.4-0.3 0.6-0.7 0.4-0.1-0.1-0.2-0.1-0.3-0.2-0.1 0-0.1-0.1-0.1-0.2-0.1-0.1-0.1-0.3-0.2-0.5-0.2 0.1-0.4 0.1-0.6 0.2-0.1 0-0.2 0.1-0.3 0.1-0.3 0-0.4 0-0.5-0.3-0.1-0.3-0.3-0.3-0.5-0.4-0.4-0.1-0.9-0.1-1.3-0.3h-0.1c-0.4-0.3-0.8-0.3-1.3-0.3-0.3 0-0.6 0.1-0.9 0.1-0.3 0-0.5 0.1-0.7 0.3-0.1 0.1-0.2 0.2-0.3 0.2-0.1-0.1-0.1-0.2-0.2-0.3v-0.1c0-0.1-0.1-0.2-0.2-0.1-0.2 0.1-0.4-0.1-0.6-0.2-0.1-0.1-0.3-0.3-0.3-0.5-0.1-0.1-0.2-0.2-0.3-0.2-0.2 0-0.5-0.1-0.7-0.1-0.1 0-0.2 0-0.2-0.1-0.1-0.1-0.2-0.1-0.4-0.1-0.1 0-0.1-0.1-0.2-0.1 0.2 0.2 0.3 0.4 0.4 0.6 0 0.1 0.1 0.1 0.1 0.2 0.1 0.2 0 0.3-0.3 0.3-0.2 0-0.2 0-0.3 0.1 0 0.2 0 0.3 0 0.5 0 0.1 0 0.2-0.2 0.3 0 0-0.1 0-0.1 0.1-0.1 0.1-0.1 0.2 0 0.3 0.3 0.2 0.5 0.3 0.8 0.4 0.3 0 0.3 0.2 0.4 0.4 0.1 0.2 0 0.3-0.1 0.5-0.2 0.2-0.4 0.4-0.6 0.6-0.3 0.1-0.5 0.4-0.8 0.4-0.2 0-0.4-0.1-0.5-0.3-0.1-0.5-0.1-0.9 0.1-1.4 0-0.1 0.1-0.2 0-0.3-0.9 0-0.9-0.2-0.9-0.3 0-0.2 0.1-0.3 0.1-0.5 0.1-0.2 0-0.3-0.3-0.4-0.1 0-0.2 0-0.3 0-0.1 0-0.1-0.1-0.3-0.1 0.2-0.1 0.3-0.1 0.5-0.2-0.1-0.4-0.2-0.7-0.5-0.9-0.1-0.1-0.2-0.2-0.2-0.4 0-0.3-0.2-0.5-0.3-0.7-0.2-0.3-0.6-0.4-0.9-0.4-0.3-0.1-0.5-0.1-0.8-0.2-0.3-0.1-0.6-0.4-0.9-0.5-0.1-0.1-0.2-0.2-0.4-0.3-0.4-0.2-0.7-0.5-1-0.8-0.2-0.1-0.3-0.3-0.5-0.4-0.2-0.2-0.3-0.4-0.5-0.5-0.2-0.2-0.4-0.4-0.7-0.6-0.3-0.2-0.5-0.5-0.8-0.8-0.2-0.3-0.5-0.5-0.8-0.7-0.1 0-0.2 0-0.3 0-0.1 0-0.2 0.1-0.3 0.1-0.3 0.1-0.5 0.3-0.8 0.4 0.1-0.1 0.1-0.1 0-0.3-0.1-0.1-0.2-0.2-0.3-0.2-0.2 0-0.4 0-0.6 0-0.4 0-0.8 0.1-1.2 0.1-0.3 0-0.7 0.1-1 0.2 0.1 0.2 0.1 0.3 0.2 0.5-0.2 0.1-0.4 0.1-0.6 0.1-0.1 0-0.3 0.1-0.4 0.2-0.1 0-0.1 0.1-0.2 0-0.2-0.1-0.4 0-0.6 0.1h-0.1c0 0 0-0.1 0.1-0.1 0.1-0.1 0.2-0.2 0.3-0.3 0.1-0.1 0.2-0.1 0.4-0.2-0.1-0.1-0.1-0.2-0.1-0.2-0.1-0.1-0.2-0.1-0.3 0-0.1 0.1-0.2 0.2-0.3 0.3-0.1 0.1-0.2 0.1-0.3 0-0.1-0.1-0.1-0.2 0-0.3 0-0.1 0.1-0.2 0.2-0.3 0.1-0.1 0.1-0.2 0.2-0.3-0.2-0.2-0.3-0.4-0.5-0.5-0.3-0.2-0.6-0.5-0.8-0.8-0.2-0.4-0.5-0.7-0.9-0.9-0.1-0.1-0.2-0.2-0.3-0.3-0.1-0.1-0.1-0.1-0.2-0.2-0.3 0.1-0.5 0.3-0.8 0.4-0.1 0-0.1 0.1-0.2 0.2-0.1 0.2-0.3 0.2-0.5 0.2-0.1 0-0.2-0.1-0.1-0.2 0.1-0.2 0.2-0.4 0.5-0.3 0 0 0.1 0 0.1-0.1 0.2-0.2 0.4-0.5 0.7-0.7-0.1-0.3-0.3-0.5-0.4-0.7-0.1-0.1-0.1-0.2-0.1-0.4 0-0.1 0-0.1-0.1-0.2 0 0-0.1 0-0.2 0.1-0.1 0.1-0.3 0.2-0.5 0 0-0.1 0-0.2 0.1-0.3l0.1-0.1c0.3-0.1 0.3-0.4 0.3-0.7v-0.1c-0.1-0.2-0.1-0.3 0.1-0.5 0.3-0.2 0.6-0.6 0.7-0.9 0.1-0.2 0.3-0.3 0.5-0.5 0.2-0.2 0.4-0.4 0.5-0.7h0.1c0.4 0.1 0.5-0.2 0.7-0.5 0-0.1 0-0.2 0.1-0.2 0.2-0.2 0.2-0.4 0.1-0.7 0-0.1-0.1-0.3-0.1-0.4 0-0.1 0-0.1-0.1-0.2-0.3-0.2-0.3-0.4 0-0.6 0.2-0.1 0.2-0.3 0.3-0.4 0.1-0.2 0.1-0.4 0.1-0.7-0.1-0.3-0.1-0.7-0.2-1-0.1-0.4-0.2-0.9-0.3-1.3 0-0.1 0-0.1 0-0.2 0-0.3 0-0.5-0.1-0.8-0.1-0.1-0.1-0.3-0.1-0.4-0.1-0.3-0.2-0.5-0.5-0.6-0.3-0.2-0.7-0.3-1-0.5-0.1-0.1-0.2 0-0.3 0.1-0.1 0.2-0.3 0.4-0.4 0.6-0.1 0.1-0.2 0.3-0.3 0.5-0.2 0.2-0.6 0.4-0.9 0.1-0.1-0.2-0.2-0.3 0-0.5 0.2-0.3 0.4-0.6 0.7-0.8 0.1-0.1 0.2-0.3 0.3-0.4 0.1-0.2 0.1-0.4 0.1-0.6-0.1-0.4-0.2-0.8-0.2-1.3 0-0.5 0-0.9 0.1-1.4 0.1-0.2 0.1-0.5 0.2-0.7 0-0.1 0.1-0.3 0.2-0.4 0.2-0.2 0.4-0.4 0.5-0.7 0.1-0.3 0.3-0.6 0.3-0.9 0-0.1 0.1-0.2 0.1-0.3 0-0.1 0.1-0.3 0.1-0.4-0.1-0.3 0-0.5 0.1-0.7 0.1-0.2 0.2-0.5 0.3-0.7 0.2-0.4 0.2-0.9 0.6-1.3 0.1-0.2 0.2-0.4 0.3-0.6 0.1-0.4 0.3-0.7 0.5-1 0.1-0.1 0.1-0.1 0.1-0.2 0.1-0.3 0.3-0.6 0.5-0.9 0.2-0.3 0.2-0.6 0.3-0.9 0-0.1 0-0.2 0.1-0.3 0.3-0.3 0.2-0.7 0.1-1.1-0.2-0.5-0.3-1-0.2-1.5 0-0.1 0-0.2 0.1-0.2 0.1-0.2 0.1-0.3 0.2-0.5v-0.1c0.2-0.2 0.4-0.5 0.7-0.6 0.4-0.2 0.8-0.3 1.3-0.4 0.4 0 0.8-0.2 1.1-0.6 0-0.1 0.1-0.1 0.2-0.2l0.1-0.1c0.1-0.2 0.2-0.3 0.3-0.4 0.2-0.2 0.4-0.5 0.6-0.7 0.2-0.2 0.4-0.5 0.7-0.8l0.1-0.1c0.2-0.2 0.4-0.4 0.6-0.5 0.2-0.2 0.4-0.4 0.6-0.6 0.2-0.2 0.3-0.4 0.5-0.6 0.2-0.1 0.4-0.3 0.6-0.5 0.2-0.2 0.4-0.4 0.5-0.5 0.2-0.2 0.5-0.4 0.7-0.5 0.2-0.1 0.4-0.2 0.5-0.5 0.1-0.3 0.2-0.5 0.3-0.8 0-0.2 0.1-0.4 0.2-0.6 0.1 0 0.2 0 0.4-0.1-0.1-0.1-0.2-0.1-0.2-0.2 0-0.1 0.1-0.2 0.1-0.2 0-0.1 0.1-0.2 0.1-0.3 0 0 0.1 0 0.1-0.1 0 0 0.1 0 0.1-0.1-0.2 0.1-0.3 0-0.4-0.1 0.1 0.1 0.2 0.1 0.4 0.2 0 0 0.1 0 0.1-0.1 0-0.1 0-0.2 0-0.2 0 0-0.1 0-0.2 0-0.1 0-0.2 0.1-0.3 0.1zM54 70.5c0-0.1-0.1-0.1-0.1-0.2-0.1-0.2 0-0.3 0.1-0.4 0.1-0.1 0.2-0.1 0.4-0.1 0.2 0.1 0.3 0.2 0.3 0.4 0 0.1 0 0.3 0 0.4 0.1 0.4 0.1 0.4 0.5 0.4 0.2 0 0.4 0 0.6 0 0.4-0.1 0.8-0.3 1.2-0.4 0.4-0.1 0.8-0.2 1.2-0.3 0.1 0 0.2 0 0.4 0 0.4 0.1 0.7 0 1-0.2 0.1-0.1 0.3-0.1 0.4-0.2 0.2-0.1 0.4-0.1 0.6-0.2 0.5-0.3 1-0.5 1.4-0.8 0.3-0.2 0.6-0.4 0.9-0.6 0.3-0.2 0.6-0.4 0.9-0.6 0.2-0.1 0.5-0.3 0.7-0.5 0.4-0.3 0.7-0.6 1.1-0.8 0.2-0.1 0.3-0.2 0.4-0.3 0.2-0.1 0.3-0.3 0.5-0.4 0.1-0.1 0.2-0.2 0.4-0.3 0.1-0.1 0.1-0.1 0.1-0.2 0.3-0.2 0.6-0.6 0.8-0.9 0.2-0.2 0.4-0.4 0.6-0.7 0.3-0.3 0.5-0.7 0.8-1.1 0.2-0.2 0.4-0.5 0.5-0.7 0.2-0.4 0.4-0.8 0.7-1.1v-0.1c0.2-0.4 0.4-0.8 0.6-1.2 0.3-0.5 0.5-1.1 0.8-1.6 0.1-0.2 0.2-0.4 0.2-0.6 0.2-0.4 0.3-0.8 0.4-1.2 0-0.1 0-0.1 0.1-0.2 0.3-0.6 0.5-1.2 0.6-1.9 0.1-0.4 0.2-0.8 0.3-1.2 0.2-0.6 0.2-1.1 0.3-1.7 0.1-0.4 0.1-0.9 0.1-1.3 0.1-0.6 0.1-1.3 0-1.9 0-0.5-0.1-1.1-0.1-1.6 0-0.5-0.1-0.9-0.2-1.4-0.1-0.5-0.2-0.9-0.3-1.4-0.2-0.4-0.3-0.8-0.4-1.3-0.1-0.4-0.3-0.7-0.3-1.1 0-0.3-0.1-0.6-0.4-0.7-0.3-0.1-0.5-0.2-0.8-0.4-0.6-0.4-0.9-0.9-0.8-1.5 0-0.3 0.1-0.7 0.2-1 0.1-0.3 0.2-0.6 0-0.8-0.1-0.3-0.3-0.5-0.4-0.7-0.2-0.3-0.3-0.5-0.5-0.7-0.2-0.4-0.4-0.8-0.7-1.1-0.4-0.5-0.7-1-1.2-1.4l-0.1-0.1c-0.3-0.4-0.6-0.8-1-1.1-0.2-0.2-0.4-0.4-0.6-0.5-0.1-0.1-0.2-0.2-0.4-0.3-0.3-0.2-0.6-0.3-0.8-0.5-0.3-0.3-0.7-0.5-1-0.7 0 0-0.1 0-0.1-0.1-0.4-0.2-0.7-0.3-1.1-0.5-0.4-0.2-0.8-0.3-1.2-0.3-0.1 0-0.1 0-0.2 0-0.1-0.1-0.3-0.1-0.4-0.1-0.1 0-0.1 0-0.2 0-0.2-0.1-0.5 0-0.7 0-0.4 0.1-0.8 0.1-1.2-0.1-0.5-0.2-0.9-0.4-1.3-0.6-0.3-0.2-0.5-0.4-0.8-0.6-0.6-0.5-1.2-1.1-1.9-1.6 0.1-0.5-0.1-0.6-0.5-0.6-0.2 0-0.4 0.1-0.6 0.2-0.1 0.1-0.1 0.1-0.2 0.2-0.3 0.2-0.5 0.5-0.8 0.7-0.5 0.3-0.7 0.2-1.1 0-0.1-0.1-0.2-0.2-0.3-0.3-0.2-0.2-0.4-0.5-0.5-0.7-0.2-0.4-0.6-0.4-1-0.4-0.2 0-0.5 0.1-0.7 0.1-0.4 0-0.8 0.2-1 0.5-0.2 0.3-0.4 0.6-0.7 0.9-0.1 0.1-0.3 0.2-0.4 0.4-0.2 0.2-0.4 0.2-0.6 0-0.1-0.1-0.2-0.1-0.3-0.2-0.1 0.1-0.2 0.2-0.2 0.3-0.1 0.2-0.2 0.4-0.3 0.7-0.1 0.3-0.3 0.6-0.5 0.8-0.1 0.1-0.1 0.1-0.2 0.2-0.1 0.2-0.4 0.3-0.6 0.3-0.2 0.2-0.4 0.5-0.5 0.7-0.1 0.2-0.2 0.4-0.3 0.7-0.1 0.1-0.1 0.3-0.2 0.4-0.1 0.2-0.1 0.3-0.1 0.5 0.1 0.3-0.1 0.4-0.4 0.5-0.2 0-0.2 0-0.3 0.2 0 0.3 0.1 0.5 0.2 0.8 0.1 0.1 0.2 0.3 0.2 0.4 0 0.2 0.1 0.3 0.3 0.4 0.1 0.1 0.2 0.2 0.3 0.2 0.1 0 0.1 0.1 0.2 0.1 0.1 0.1 0.2 0 0.2-0.1 0.1-0.3 0.2-0.6 0.2-0.9 0.1-0.4 0.1-0.7 0.2-1.1 0.1-0.2 0.2-0.3 0.3-0.4 0 0 0.1 0 0.2 0v0.1c-0.1 0.5-0.3 1.1-0.4 1.6-0.1 0.2-0.1 0.4-0.2 0.6 0 0.1-0.1 0.2-0.2 0.2-0.2 0.1-0.4 0.2-0.6 0.2-0.1 0-0.2 0-0.3 0-0.2-0.1-0.4-0.3-0.6-0.4-0.1-0.1-0.2-0.2-0.3-0.3-0.1-0.2-0.2-0.4-0.3-0.6-0.1-0.2-0.2-0.3-0.4-0.4-0.1-0.1-0.2-0.1-0.3-0.2-0.2-0.2-0.4-0.3-0.7-0.3-0.1 0-0.3 0-0.4 0-0.1 0-0.3 0.1-0.4 0.2-0.2 0.1-0.3 0.1-0.5 0-0.5-0.2-1-0.1-1.5 0.1-0.2 0.1-0.4 0.2-0.6 0.2-0.5 0-0.9 0-1.4 0-0.5 0-0.9-0.1-1.4-0.2-0.2 0-0.4 0-0.6 0-0.4 0.1-0.5 0.4-0.4 0.8 0.1 0.4 0.2 0.9 0.2 1.3 0 0.3 0 0.6 0 0.9 0 0.2 0 0.3 0 0.5 0 0.3-0.1 0.6-0.1 0.9-0.1 0.6-0.4 1.1-0.8 1.5-0.3 0.3-0.7 0.6-1.1 0.7-0.2 0.1-0.4 0.2-0.7 0.3-0.5 0.2-0.9 0.6-1.2 1.1-0.1 0.2-0.2 0.4-0.3 0.6-0.2 0.3-0.3 0.5-0.5 0.8-0.1 0.2-0.3 0.4-0.4 0.6-0.1 0.2-0.3 0.3-0.3 0.5-0.2 0.4-0.3 0.8-0.5 1.2-0.1 0.2-0.1 0.5-0.2 0.7-0.2 0.4-0.2 0.8-0.2 1.3 0 0.1 0 0.2 0 0.4 0 0.5-0.1 1.1-0.1 1.6 0 0.5 0 1 0.1 1.5 0 0.2 0 0.5 0 0.7 0 0.4 0.1 0.9 0.1 1.3 0 0.4 0 0.9 0.2 1.3v0.1c0.1 0.4 0.1 0.8 0.2 1.2 0 0.1 0 0.2 0.1 0.3 0.2 0.6 0.3 1.1 0.5 1.7 0.1 0.4 0.3 0.8 0.4 1.2 0.1 0.4 0.5 0.8 0.6 1.3v0c0.3 0.6 0.6 1.2 1 1.8 0.1 0.2 0.3 0.4 0.4 0.6 0.2 0.3 0.3 0.6 0.5 0.8 0.1 0.2 0.3 0.4 0.4 0.5 0.1 0.2 0.2 0.4 0.4 0.6 0.2 0.2 0.4 0.5 0.6 0.7 0.3 0.5 0.7 0.9 1.1 1.2 0.2 0.2 0.4 0.3 0.6 0.5 0.1 0.1 0.2 0.1 0.2 0.2 0.1 0.1 0.2 0.2 0.4 0.3 0.8 0.4 1.4 1 2.1 1.6 0.3 0.3 0.6 0.6 1 0.8 0.4 0.3 0.7 0.6 1.2 0.7 0 0 0.1 0 0.1 0.1 0.2 0.2 0.5 0.3 0.7 0.4 0.4 0.2 0.9 0.4 1.3 0.6 0.1 0.1 0.3 0.1 0.4 0.2 0.3 0.1 0.6 0.2 0.9 0.3 0.3 0.1 0.5 0.2 0.8 0.2h0.1c0.2 0.1 0.3 0.1 0.5 0 0.1 0 0.2 0 0.2 0.1 0 0.1 0.1 0.1 0.2 0.1 0.1 0 0.2 0 0.4 0 0.1-0.1 0.1-0.2 0.2-0.4 0.1 0.1 0.2 0.1 0.2 0.1 0.1 0.2 0.3 0.2 0.5 0.2h0.1c0.2 0 0.3 0 0.4-0.1 0-0.1 0.2-0.1 0.3-0.1 0.3 0.1 0.6 0.1 0.9 0.2 0.2 0.1 0.5 0.1 0.6-0.1 0.1-0.1 0.2-0.2 0.4-0.1 0.2 0.1 0.3 0.1 0.5 0 0.1 0 0.2 0 0.2 0 0.3 0.1 0.5 0.1 0.8 0.2 0.4 0.1 0.4 0.1 0.7-0.2 0.1-0.1 0.3-0.1 0.4 0 0.1 0.2 0.1 0.3 0.1 0.5 0.1 0 0.1 0 0.2-0.1 0-0.2 0.1-0.2 0.3-0.3 0.1 0.1 0.1 0.1 0.2 0.1 0.2 0.2 0.3 0.2 0.4-0.1 0-0.1 0-0.2 0.1-0.2 0.1 0 0.2 0.1 0.2 0.1 0.1 0.2 0.3 0.3 0.4 0.5 0.2 0.2 0.5 0.2 0.6 0 0.1-0.1 0.2-0.1 0.3-0.1 0-0.1 0-0.2 0-0.3 0.3 0.2 0.2 0.2 0.1 0.2zM37.4 23.8c0.3 0.1 0.5 0.1 0.6-0.1-0.2 0.1-0.4-0.1-0.6 0.1z" fill="#055949" fill-rule="nonzero" stroke="none" stroke-width="1" stroke-linecap="butt" stroke-linejoin="miter" stroke-miterlimit="10" stroke-dasharray="" stroke-dashoffset="0" font-family="none" font-weight="none" font-size="none" text-anchor="none" style="mix-blend-mode: normal" data-fill-palette-color="tertiary"></path></g><g transform="matrix(1,0,0,1,100.35793982918482,90)"><svg viewBox="0 0 119.28412034163037 180" height="180" width="119.28412034163037"><g><svg viewBox="0 0 119.28412034163037 180" height="180" width="119.28412034163037"><g><svg viewBox="0 0 192 289.72842236686637" height="180" width="119.28412034163037"><g transform="matrix(1,0,0,1,0,170.71264949620394)"><svg viewBox="0 0 192 119.01577287066245" height="119.01577287066245" width="192"><g id="textblocktransform"><svg viewBox="0 0 192 119.01577287066245" height="119.01577287066245" width="192" id="textblock"><g><svg viewBox="0 0 192 119.01577287066245" height="119.01577287066245" width="192"><g transform="matrix(1,0,0,1,0,0)"><svg width="192" viewBox="2.98 -36.57 61.910000000000004 38.38" height="119.01577287066245" data-palette-color="#055949"><g class="undefined-text-0" data-fill-palette-color="primary" id="text-0"><path d="M23.34-36.28L23.83-36.13Q24.41-36.28 24.66-36.25 24.9-36.23 25.15-36.18L25.15-36.18Q25.44-35.99 25.63-35.69L25.63-35.69Q25.63-34.67 25.61-33.67 25.59-32.67 25.59-31.64L25.59-31.64Q25.59-29.79 25.63-27.93 25.68-26.07 25.63-24.22L25.63-24.22Q25.73-23.78 25.68-23.73 25.63-23.68 25.63-23.58L25.63-23.58Q25.63-21.73 25.73-19.92 25.83-18.12 25.83-16.26L25.83-16.26 25.83-9.77Q25.83-7.67 25.95-5.62 26.07-3.56 26.07-1.51L26.07-1.51Q26.07-1.32 25.83-0.98L25.83-0.98Q25.73-0.59 25.54-0.34L25.54-0.34Q25.1-0.29 24.71-0.49L24.71-0.49Q24.51-0.49 24.44-0.37 24.37-0.24 24.22-0.15L24.22-0.15Q23.83-0.15 23.58 0.05 23.34 0.24 23 0.24L23 0.24Q22.71 0.24 22.44 0.17 22.17 0.1 21.83 0.1L21.83 0.1Q21.73 0.1 21.53 0.27 21.34 0.44 21.24 0.49L21.24 0.49Q21 0.49 20.8 0.56 20.61 0.63 20.36 0.63L20.36 0.63Q20.12 0.44 20.14 0.05 20.17-0.34 19.82-0.44L19.82-0.44Q19.82-0.68 19.85-0.98 19.87-1.27 19.87-1.56L19.87-1.56Q19.87-3.47 19.78-5.4 19.68-7.32 19.63-9.23L19.63-9.23Q19.58-10.06 19.6-10.86 19.63-11.67 19.63-12.5L19.63-12.5Q19.63-12.94 19.63-13.38 19.63-13.82 19.53-14.21L19.53-14.21Q19.24-14.26 19.02-14.14 18.8-14.01 18.55-14.01L18.55-14.01Q17.53-13.67 17.19-13.33L17.19-13.33Q16.89-13.33 16.7-13.23 16.5-13.13 16.26-13.04L16.26-13.04Q15.87-12.94 15.5-12.87 15.14-12.79 14.75-12.65L14.75-12.65Q14.5-12.55 14.26-12.45 14.01-12.35 13.77-12.26L13.77-12.26Q13.23-12.06 12.7-11.89 12.16-11.72 11.62-11.52L11.62-11.52Q11.08-11.43 10.69-11.23 10.3-11.04 9.91-10.84L9.91-10.84Q9.57-8.54 9.55-6.47 9.52-4.39 9.67-2.34L9.67-2.34Q9.57-2.05 9.57-1.68 9.57-1.32 9.42-1.07L9.42-1.07Q8.89-0.93 8.72-1.05 8.54-1.17 8.35-1.27L8.35-1.27Q8.15-1.22 8.03-1.07 7.91-0.93 7.81-0.83L7.81-0.83Q7.42-0.83 7.2-0.66 6.98-0.49 6.79-0.39L6.79-0.39Q6.64-0.34 6.49-0.39 6.35-0.44 6.15-0.34L6.15-0.34Q5.66-0.34 5.69-0.46 5.71-0.59 5.57-0.59L5.57-0.59Q5.37-0.59 5.3-0.42 5.22-0.24 5.03-0.15L5.03-0.15Q4.83-0.05 4.59-0.02 4.35 0 4.1 0.1L4.1 0.1Q3.86-0.15 3.86-0.44 3.86-0.73 3.61-0.98L3.61-0.98Q3.52-1.66 3.49-2.32 3.47-2.98 3.32-3.66L3.32-3.66Q3.42-5.03 3.39-5.86 3.37-6.69 3.37-7.57L3.37-7.57Q3.37-8.35 3.32-9.13 3.27-9.91 3.22-10.69L3.22-10.69Q3.13-12.11 3.05-13.57 2.98-15.04 2.98-16.5L2.98-16.5Q2.98-17.72 3.1-18.9 3.22-20.07 3.22-21.29L3.22-21.29Q3.22-22.12 3.25-22.92 3.27-23.73 3.27-24.56L3.27-24.56Q3.27-25.24 3.25-25.9 3.22-26.56 3.22-27.2L3.22-27.2Q3.22-27.93 3.32-28.64 3.42-29.35 3.42-30.03L3.42-30.03Q3.42-30.86 3.32-31.67 3.22-32.47 3.22-33.3L3.22-33.3Q3.22-33.54 3.27-33.76 3.32-33.98 3.32-34.23L3.32-34.23Q3.27-34.77 3.37-34.89 3.47-35.01 3.56-35.21L3.56-35.21Q3.81-35.25 4.1-35.35 4.39-35.45 4.64-35.35L4.64-35.35Q4.93-35.64 5.44-35.64 5.96-35.64 6.2-35.99L6.2-35.99Q6.54-35.94 6.67-35.96 6.79-35.99 6.88-35.99L6.88-35.99Q7.32-35.89 7.35-36.01 7.37-36.13 7.52-36.13L7.52-36.13Q7.76-36.13 8.28-36.11 8.79-36.08 8.98-35.89L8.98-35.89Q9.47-33.3 9.52-30.62 9.57-27.93 9.57-25.29L9.57-25.29Q9.57-24.61 9.62-23.9 9.67-23.19 9.57-22.51L9.57-22.51Q9.57-22.22 9.52-21.95 9.47-21.68 9.47-21.39L9.47-21.39Q9.47-20.56 9.38-19.65 9.28-18.75 9.28-17.92L9.28-17.92Q9.86-17.58 10.28-17.7 10.69-17.82 11.08-17.97L11.08-17.97Q11.57-18.12 11.99-18.29 12.4-18.46 12.84-18.6L12.84-18.6Q13.23-18.8 13.7-18.92 14.16-19.04 14.55-19.14L14.55-19.14Q15.82-19.58 17.04-20.21 18.26-20.85 19.53-21.24L19.53-21.24Q19.43-23.93 19.43-26.59 19.43-29.25 19.43-31.88L19.43-31.88Q19.43-32.62 19.43-33.4 19.43-34.18 19.53-34.91L19.53-34.91Q19.58-35.11 19.65-35.23 19.73-35.35 19.73-35.6L19.73-35.6Q19.87-35.84 20.07-35.94 20.26-36.04 20.36-36.23L20.36-36.23Q20.46-36.13 20.58-36.06 20.7-35.99 20.85-35.94L20.85-35.94Q21.24-36.04 21.31-36.08 21.39-36.13 21.48-36.18L21.48-36.18Q21.73-36.28 22.12-36.28 22.51-36.28 22.75-36.28L22.75-36.28 23.34-36.28ZM60.5-35.79L60.54-35.99Q60.74-35.64 61.06-35.69 61.37-35.74 61.72-35.64L61.72-35.64 62.25-35.45Q62.55-35.4 62.69-35.33 62.84-35.25 62.99-35.16L62.99-35.16Q63.47-35.21 64.13-34.89 64.79-34.57 64.89-34.42L64.89-34.42Q64.3-32.37 63.69-30.44 63.08-28.52 62.55-26.56L62.55-26.56Q62.4-26.12 62.23-25.46 62.06-24.8 61.89-24.1 61.72-23.39 61.52-22.78 61.33-22.17 61.18-21.83L61.18-21.83 60.94-21.09Q60.06-17.58 59.13-14.14 58.2-10.69 57.08-7.18L57.08-7.18Q56.69-6.05 56.47-4.86 56.25-3.66 55.91-2.49L55.91-2.49Q55.52-1.9 55.49-1.46 55.47-1.03 55.42-0.59 55.37-0.15 55.25 0.24 55.12 0.63 54.83 0.78L54.83 0.78Q54.83 1.17 54.66 1.37 54.49 1.56 54.39 1.81L54.39 1.81Q54 1.81 53.59 1.46 53.17 1.12 52.83 0.83L52.83 0.83Q52.59 0.44 52.39-0.02 52.19-0.49 52.1-0.93L52.1-0.93Q51.66-2.93 51.17-4.88 50.68-6.84 50.19-8.79L50.19-8.79Q50.19-8.94 50.12-9.28 50.05-9.62 49.95-10.01 49.85-10.4 49.78-10.69 49.7-10.99 49.66-11.08L49.66-11.08Q49.36-12.94 48.9-14.77 48.44-16.6 47.75-18.31L47.75-18.31Q47.75-18.6 47.65-18.9 47.56-19.19 47.56-19.48L47.56-19.48Q47.46-19.68 47.41-19.97 47.36-20.26 47.17-20.36L47.17-20.36Q46.92-20.36 46.9-20.07 46.87-19.78 46.87-19.53L46.87-19.53Q46.53-18.41 46.34-17.68 46.14-16.94 46.09-16.21L46.09-16.21Q45.8-15.67 45.8-14.94L45.8-14.94Q45.65-14.7 45.6-14.36 45.55-14.01 45.46-13.72L45.46-13.72Q44.63-10.6 43.7-7.76L43.7-7.76Q43.6-7.42 43.55-7.06 43.5-6.69 43.41-6.3L43.41-6.3Q43.11-5.03 42.92-3.81 42.72-2.59 42.53-1.32L42.53-1.32Q42.43-0.88 42.33-0.73 42.23-0.59 42.14-0.54 42.04-0.49 41.97-0.46 41.89-0.44 41.89-0.29L41.89-0.29Q41.65 0.1 41.75 0.2 41.84 0.29 41.84 0.39L41.84 0.39Q41.84 0.49 41.57 0.51 41.31 0.54 41.21 0.54L41.21 0.54Q40.82 0.39 40.6 0.59 40.38 0.78 40.23 0.78L40.23 0.78Q40.09 0.54 39.89 0.37 39.69 0.2 39.6 0.29L39.6 0.29Q39.11 0.05 38.99 0 38.86-0.05 38.77-0.15L38.77-0.15Q38.67-0.78 38.4-1.39 38.13-2 37.94-2.59L37.94-2.59Q37.74-3.27 37.64-3.98 37.55-4.69 37.4-5.42L37.4-5.42Q37.3-5.76 37.13-6.25 36.96-6.74 36.96-7.03L36.96-7.03Q36.86-7.62 36.84-7.81 36.81-8.01 36.72-8.15L36.72-8.15Q36.72-8.94 36.37-9.94 36.03-10.94 35.89-11.77L35.89-11.77Q35.35-14.6 34.71-17.14L34.71-17.14Q34.62-17.53 34.47-17.87 34.32-18.21 34.18-18.6L34.18-18.6Q33.93-19.34 33.74-20.09 33.54-20.85 33.3-21.63L33.3-21.63Q33.1-22.27 32.93-22.88 32.76-23.49 32.57-24.17L32.57-24.17Q32.47-24.46 32.32-24.76 32.18-25.05 32.03-25.39L32.03-25.39Q31.83-26.07 31.69-26.68 31.54-27.29 31.35-27.88L31.35-27.88Q30.95-29.2 30.54-30.49 30.12-31.79 29.73-33.11L29.73-33.11Q29.73-33.45 29.68-33.62 29.64-33.79 29.68-34.03L29.68-34.03Q29.59-34.23 29.56-34.47 29.54-34.72 29.54-34.96L29.54-34.96 29.54-35.64Q29.78-35.74 30.32-35.91 30.86-36.08 31.1-36.08L31.1-36.08Q31.74-36.04 32.03-36.08 32.32-36.13 32.52-36.33L32.52-36.33Q32.66-36.33 32.79-36.28 32.91-36.23 33.05-36.23L33.05-36.23Q33.64-36.38 33.74-36.28L33.74-36.28Q33.93-36.33 34.03-36.45 34.13-36.57 34.37-36.57L34.37-36.57Q34.47-36.57 34.62-36.33 34.76-36.08 34.86-35.99L34.86-35.99Q34.96-35.74 35.06-35.52 35.15-35.3 35.25-35.06L35.25-35.06Q35.54-34.33 35.76-33.4 35.98-32.47 36.28-31.64L36.28-31.64Q36.52-31.1 36.67-30.49 36.81-29.88 37.01-29.3L37.01-29.3Q37.11-29.05 37.2-28.81 37.3-28.56 37.4-28.32L37.4-28.32Q37.55-27.73 37.72-27.22 37.89-26.71 38.03-26.17L38.03-26.17Q38.62-24.46 39.13-22.73 39.65-21 40.04-19.29L40.04-19.29Q40.13-18.8 40.28-18.16 40.43-17.53 40.72-17.14L40.72-17.14Q40.92-17.29 40.99-17.68 41.06-18.07 41.16-18.31L41.16-18.31Q41.26-18.6 41.33-18.9 41.4-19.19 41.5-19.48L41.5-19.48Q41.65-20.17 41.79-20.78 41.94-21.39 42.14-22.02L42.14-22.02Q42.38-23.1 42.62-24.19 42.87-25.29 43.16-26.42L43.16-26.42Q43.36-27.1 43.55-27.83 43.75-28.56 43.94-29.25L43.94-29.25Q44.04-29.59 44.11-29.93 44.19-30.27 44.28-30.66L44.28-30.66Q44.43-31.05 44.6-31.45 44.77-31.84 44.87-32.23L44.87-32.23Q45.21-33.2 45.51-34.2 45.8-35.21 46.24-36.08L46.24-36.08Q46.34-36.18 46.43-36.25 46.53-36.33 46.68-36.43L46.68-36.43Q47.12-36.04 47.26-35.82 47.41-35.6 47.75-35.6L47.75-35.6Q47.95-35.45 48.02-35.23 48.09-35.01 48.39-35.06L48.39-35.06Q48.53-34.96 48.61-34.79 48.68-34.62 48.87-34.52L48.87-34.52Q49.07-34.08 49.12-34.13 49.17-34.18 49.31-34.13L49.31-34.13Q49.41-33.98 49.88-33.79 50.34-33.59 50.53-33.5L50.53-33.5Q50.53-33.3 50.61-33.15 50.68-33.01 50.68-32.81L50.68-32.81Q50.68-32.57 50.51-31.98 50.34-31.4 50.24-31.05L50.24-31.05Q50.49-30.96 50.58-30.98 50.68-31.01 50.78-31.01L50.78-31.01Q51.27-30.18 51.39-29.17 51.51-28.17 51.61-27.34L51.61-27.34Q51.71-26.95 51.78-26.59 51.85-26.22 51.95-25.83L51.95-25.83Q52.19-24.85 52.41-23.9 52.63-22.95 52.88-21.97L52.88-21.97Q52.88-21.73 53.07-21.44L53.07-21.44Q53.07-21.14 53.24-20.48 53.42-19.82 53.61-19.12 53.81-18.41 54.05-17.77 54.29-17.14 54.44-16.85L54.44-16.85Q54.69-16.99 54.73-17.53 54.78-18.07 54.98-18.31L54.98-18.31Q55.56-20.9 56.22-23.44 56.88-25.98 57.57-28.61L57.57-28.61Q58.01-30.37 58.47-31.98 58.93-33.59 59.57-35.3L59.57-35.3Q59.67-35.5 59.67-35.89L59.67-35.89Q60.25-36.04 60.5-35.79L60.5-35.79Z" fill="#055949" data-fill-palette-color="primary"></path></g></svg></g></svg></g></svg></g></svg></g><g transform="matrix(1,0,0,1,36.672,0)"><svg viewBox="0 0 118.656 153.3453918558254" height="153.3453918558254" width="118.656"><g><svg xmlns="http://www.w3.org/2000/svg" xmlns:xlink="http://www.w3.org/1999/xlink" version="1.1" x="0" y="0" viewBox="12.983 1 75.68599999999999 97.813" enable-background="new 0 0 100 100" xml:space="preserve" height="153.3453918558254" width="118.656" class="icon-icon-0" data-fill-palette-color="accent" id="icon-0"><g fill="#ff851b" data-fill-palette-color="accent"><polygon fill-rule="evenodd" clip-rule="evenodd" points="12.983,10.59 30.001,98.813 24.129,39.764 53.15,37.872 53.096,27.989    64.549,1 53.622,18.977  " fill="#ff851b" data-fill-palette-color="accent"></polygon><polygon fill-rule="evenodd" clip-rule="evenodd" points="59.389,54.548 64.549,1.007 55.809,40.723 36.197,41.768 37.767,62.23    30.001,98.813 42.058,58.914  " fill="#ff851b" data-fill-palette-color="accent"></polygon><polygon fill-rule="evenodd" clip-rule="evenodd" points="62.8,67.182 63.349,56.729 47.37,60.484 47.338,72.281 30.001,98.813    51.681,71.197  " fill="#ff851b" data-fill-palette-color="accent"></polygon><polygon fill-rule="evenodd" clip-rule="evenodd" points="65.711,62.394 80.552,57.663 82.061,45.131 66.162,47.226  " fill="#ff851b" data-fill-palette-color="accent"></polygon><polygon fill-rule="evenodd" clip-rule="evenodd" points="72.07,44.502 83.058,43.085 84.639,32.807 76.56,32.434 64.549,1    72.979,31.967  " fill="#ff851b" data-fill-palette-color="accent"></polygon><polygon fill-rule="evenodd" clip-rule="evenodd" points="87.413,31.294 88.669,21.788 79.125,19.094 64.549,1 79.032,23.437    78.61,30.437  " fill="#ff851b" data-fill-palette-color="accent"></polygon></g></svg></g></svg></g><g></g></svg></g></svg></g></svg></g></svg></g><defs></defs></svg><rect width="320" height="360" fill="none" stroke="none" visibility="hidden"></rect></g></svg></g></svg>