<svg xmlns="http://www.w3.org/2000/svg" version="1.1" xmlns:xlink="http://www.w3.org/1999/xlink" xmlns:svgjs="http://svgjs.dev/svgjs" width="1000" height="1000" viewBox="0 0 1000 1000"><rect width="1000" height="1000" fill="#055949"></rect><g transform="matrix(0.7,0,0,0.7,150.0001195705915,106.25)"><svg viewBox="0 0 320 360" data-background-color="#055949" preserveAspectRatio="xMidYMid meet" height="1125" width="1000" xmlns="http://www.w3.org/2000/svg" xmlns:xlink="http://www.w3.org/1999/xlink"><g id="tight-bounds" transform="matrix(1,0,0,1,0.00005466084189720277,0)"><svg viewBox="0 0 320 360" height="360" width="320"><g><svg></svg></g><g><svg viewBox="0 0 320 360" height="360" width="320"><g><path transform="translate(-119.39272,-98.31927) scale(5.58313,5.58313)" d="M36.7 23.5c0-0.2 0.1-0.4 0.3-0.4 0.2 0 0.4 0.1 0.4 0.4 0.1 0 0.3 0 0.4-0.1 0.4 0 0.8-0.1 1.1 0 0.3 0.1 0.5 0.1 0.8 0.2 0.3 0.1 0.5 0 0.7-0.1 0.4-0.1 0.7-0.3 1.1-0.4 0.2-0.1 0.3-0.1 0.5-0.1 0.2-0.1 0.4-0.1 0.7-0.2 0.5-0.1 1-0.2 1.4-0.4 0.4-0.2 0.8-0.2 1.2-0.3 0.2 0 0.3-0.1 0.5-0.2 0.1 0 0.1-0.1 0.2-0.2 0.2-0.1 0.3-0.2 0.5-0.1 0.1 0.1 0.3 0.1 0.4 0h0.1c0.6 0 1.2-0.1 1.9 0 0.1 0 0.2 0 0.2 0 0.3-0.2 0.7-0.2 1.1-0.2 0.1 0 0.3 0 0.4 0h0.1c0.4 0 0.8 0 1.1 0.1 0.3 0 0.5 0.1 0.8 0.2 0.3 0 0.5 0 0.8 0.1 0.2 0 0.4 0 0.6 0 0.1 0 0.2 0 0.2 0 0.4 0.1 0.8 0.1 1.2 0.1 0.3 0.1 0.6 0.2 1 0.2 0.1 0 0.2 0 0.3 0 0.1 0 0.2 0.1 0.3 0.1l0.1 0.1c0.4 0 0.7 0.2 1.1 0.2 0.1 0 0.3 0 0.4 0.1 0.3 0.2 0.7 0.3 1.1 0.3 0.2 0 0.3 0.1 0.4 0.2 0.3 0.1 0.5 0.2 0.8 0.3 0.2 0.1 0.4 0 0.6 0.1 0.3 0.1 0.7 0.2 1 0.5 0.2 0.2 0.4 0.2 0.7 0.4 0.1 0 0.2 0.1 0.3 0.2 0.3 0.2 0.6 0.4 0.9 0.5 0.1 0 0.2 0.1 0.3 0.1 0.3 0.2 0.6 0.5 1 0.7 0.2 0.1 0.3 0.2 0.5 0.3h0.1c0.3 0.3 0.7 0.5 1 0.8 0.3 0.3 0.5 0.5 0.9 0.7 0 0 0 0 0 0.1 0.1 0.2 0.2 0.3 0.4 0.4 0.2 0.1 0.3 0.2 0.4 0.3 0.3 0.2 0.6 0.4 0.8 0.6 0.1 0.1 0.2 0.2 0.4 0.4 0.1 0.1 0.2 0.2 0.3 0.2 0.4 0.1 0.6 0.4 0.9 0.7 0.2 0.2 0.5 0.5 0.7 0.7 0.1 0.1 0.2 0.3 0.3 0.5 0.2 0.6 0.5 1.2 0.8 1.7 0 0 0 0.1 0.1 0.2v0.1c0.2 0.2 0.3 0.5 0.5 0.7 0.1 0.1 0.1 0.2 0.2 0.3 0.2 0.3 0.3 0.7 0.5 1 0.3 0.5 0.5 1 0.7 1.5v0.1c0.1 0.2 0.2 0.4 0.3 0.7 0 0.2 0.2 0.4 0.3 0.7 0.1 0.5 0.4 1 0.5 1.6 0 0.1 0.1 0.2 0.1 0.4 0.1 0.3 0.2 0.6 0.3 0.9 0 0.1 0.1 0.2 0.2 0.3 0.2 0.2 0.2 0.4 0.2 0.6-0.1 0.4 0 0.8 0.1 1.2 0 0.1 0 0.2 0 0.4 0.1 0.4 0.2 0.9 0.2 1.3 0 0.1 0 0.3 0 0.4 0 0.3 0.1 0.6 0.3 0.9 0 0.1 0.1 0.1 0.1 0.1 0.1 0.1 0.2 0.3 0.3 0.4 0.1 0.1 0.1 0.1 0.2 0.2 0.2 0.2 0.3 0.4 0.3 0.7 0 0.1-0.1 0.3-0.1 0.4 0 0.1 0 0.3 0.1 0.4 0.1 0.1 0.1 0.2 0.1 0.3 0 0.1-0.1 0.2-0.2 0.2v0c-0.1 0.3-0.5 0.4-0.6 0.7-0.1 0.4-0.2 0.8-0.3 1.2-0.1 0.3-0.1 0.5-0.1 0.8 0 0.3-0.1 0.5-0.1 0.8-0.1 0.4-0.2 0.8-0.3 1.2 0 0.2-0.1 0.4-0.1 0.6 0.1 0.1 0.2 0.2 0.3 0.2 0.2 0.2 0.4 0.4 0.6 0.6 0.1 0.1 0.1 0.2 0 0.2-0.1 0.1-0.2 0.1-0.3 0.1-0.1-0.1-0.3-0.2-0.4-0.2-0.1-0.1-0.3-0.2-0.5-0.1 0 0.2-0.1 0.4-0.1 0.5-0.1 0.2-0.2 0.5-0.2 0.7-0.1 0.4-0.3 0.7-0.4 1.1-0.2 0.5-0.4 0.9-0.6 1.3-0.1 0.2-0.2 0.4-0.3 0.6v0c0 0.3-0.3 0.6-0.4 0.9-0.2 0.4-0.4 0.8-0.6 1.3-0.1 0.2-0.2 0.4-0.3 0.5-0.2 0.5-0.4 0.9-0.7 1.3-0.2 0.3-0.4 0.5-0.6 0.6-0.2 0.2-0.4 0.4-0.6 0.6-0.1 0.1-0.2 0.2-0.3 0.3-0.1 0.1-0.1 0.1-0.2 0.2-0.2 0.3-0.5 0.5-0.7 0.8-0.2 0.2-0.3 0.4-0.6 0.6-0.2 0.2-0.4 0.5-0.7 0.6-0.1 0.1-0.2 0.3-0.3 0.4-0.1 0.1-0.2 0.3-0.3 0.4 0 0.2 0.1 0.4 0.1 0.5 0 0.3-0.3 0.4-0.5 0.2-0.3-0.2-0.3-0.2-0.6 0-0.3 0.2-0.6 0.5-1 0.6-0.1 0-0.1 0.1-0.2 0.1-0.2 0.1-0.3 0.3-0.5 0.4-0.2 0.2-0.5 0.3-0.7 0.5-0.1 0.1-0.2 0.1-0.3 0.2-0.3 0.2-0.6 0.3-0.9 0.6-0.1 0.1-0.2 0.1-0.3 0.2 0 0.1 0 0.1 0 0.2 0 0.2-0.2 0.4-0.5 0.3-0.3-0.1-0.5 0-0.8 0-0.3 0.1-0.6 0.3-0.9 0.4-0.1 0-0.2 0.1-0.3 0.2-0.3 0.2-0.6 0.3-0.9 0.4-0.2 0-0.4 0.2-0.6 0.2-0.1 0-0.2 0.1-0.3 0.1h-0.1c-0.4 0.3-0.8 0.5-1.2 0.8-0.1 0-0.1 0.1-0.2 0.2-0.1 0.2-0.2 0.3-0.4 0.3-0.5 0-0.7 0.4-0.6 0.8 0 0.1 0.1 0.2 0.1 0.3 0.1 0.2 0 0.4-0.1 0.5-0.1 0.1-0.4 0.1-0.5-0.1-0.2-0.2-0.3-0.4-0.4-0.7-0.1-0.2-0.3-0.4-0.5-0.5-0.2-0.1-0.4-0.1-0.6 0-0.1 0-0.1 0.1-0.2 0.1-0.2 0.2-0.5 0.3-0.8 0.2-0.1 0-0.3 0-0.3 0.1-0.1 0.1-0.1 0.3 0 0.4 0.2 0.2 0.1 0.4 0.1 0.7 0 0.4-0.3 0.6-0.7 0.4-0.1-0.1-0.2-0.1-0.3-0.2-0.1 0-0.1-0.1-0.1-0.2-0.1-0.1-0.1-0.3-0.2-0.5-0.2 0.1-0.4 0.1-0.6 0.2-0.1 0-0.2 0.1-0.3 0.1-0.3 0-0.4 0-0.5-0.3-0.1-0.3-0.3-0.3-0.5-0.4-0.4-0.1-0.9-0.1-1.3-0.3h-0.1c-0.4-0.3-0.8-0.3-1.3-0.3-0.3 0-0.6 0.1-0.9 0.1-0.3 0-0.5 0.1-0.7 0.3-0.1 0.1-0.2 0.2-0.3 0.2-0.1-0.1-0.1-0.2-0.2-0.3v-0.1c0-0.1-0.1-0.2-0.2-0.1-0.2 0.1-0.4-0.1-0.6-0.2-0.1-0.1-0.3-0.3-0.3-0.5-0.1-0.1-0.2-0.2-0.3-0.2-0.2 0-0.5-0.1-0.7-0.1-0.1 0-0.2 0-0.2-0.1-0.1-0.1-0.2-0.1-0.4-0.1-0.1 0-0.1-0.1-0.2-0.1 0.2 0.2 0.3 0.4 0.4 0.6 0 0.1 0.1 0.1 0.1 0.2 0.1 0.2 0 0.3-0.3 0.3-0.2 0-0.2 0-0.3 0.1 0 0.2 0 0.3 0 0.5 0 0.1 0 0.2-0.2 0.3 0 0-0.1 0-0.1 0.1-0.1 0.1-0.1 0.2 0 0.3 0.3 0.2 0.5 0.3 0.8 0.4 0.3 0 0.3 0.2 0.4 0.4 0.1 0.2 0 0.3-0.1 0.5-0.2 0.2-0.4 0.4-0.6 0.6-0.3 0.1-0.5 0.4-0.8 0.4-0.2 0-0.4-0.1-0.5-0.3-0.1-0.5-0.1-0.9 0.1-1.4 0-0.1 0.1-0.2 0-0.3-0.9 0-0.9-0.2-0.9-0.3 0-0.2 0.1-0.3 0.1-0.5 0.1-0.2 0-0.3-0.3-0.4-0.1 0-0.2 0-0.3 0-0.1 0-0.1-0.1-0.3-0.1 0.2-0.1 0.3-0.1 0.5-0.2-0.1-0.4-0.2-0.7-0.5-0.9-0.1-0.1-0.2-0.2-0.2-0.4 0-0.3-0.2-0.5-0.3-0.7-0.2-0.3-0.6-0.4-0.9-0.4-0.3-0.1-0.5-0.1-0.8-0.2-0.3-0.1-0.6-0.4-0.9-0.5-0.1-0.1-0.2-0.2-0.4-0.3-0.4-0.2-0.7-0.5-1-0.8-0.2-0.1-0.3-0.3-0.5-0.4-0.2-0.2-0.3-0.4-0.5-0.5-0.2-0.2-0.4-0.4-0.7-0.6-0.3-0.2-0.5-0.5-0.8-0.8-0.2-0.3-0.5-0.5-0.8-0.7-0.1 0-0.2 0-0.3 0-0.1 0-0.2 0.1-0.3 0.1-0.3 0.1-0.5 0.3-0.8 0.4 0.1-0.1 0.1-0.1 0-0.3-0.1-0.1-0.2-0.2-0.3-0.2-0.2 0-0.4 0-0.6 0-0.4 0-0.8 0.1-1.2 0.1-0.3 0-0.7 0.1-1 0.2 0.1 0.2 0.1 0.3 0.2 0.5-0.2 0.1-0.4 0.1-0.6 0.1-0.1 0-0.3 0.1-0.4 0.2-0.1 0-0.1 0.1-0.2 0-0.2-0.1-0.4 0-0.6 0.1h-0.1c0 0 0-0.1 0.1-0.1 0.1-0.1 0.2-0.2 0.3-0.3 0.1-0.1 0.2-0.1 0.4-0.2-0.1-0.1-0.1-0.2-0.1-0.2-0.1-0.1-0.2-0.1-0.3 0-0.1 0.1-0.2 0.2-0.3 0.3-0.1 0.1-0.2 0.1-0.3 0-0.1-0.1-0.1-0.2 0-0.3 0-0.1 0.1-0.2 0.2-0.3 0.1-0.1 0.1-0.2 0.2-0.3-0.2-0.2-0.3-0.4-0.5-0.5-0.3-0.2-0.6-0.5-0.8-0.8-0.2-0.4-0.5-0.7-0.9-0.9-0.1-0.1-0.2-0.2-0.3-0.3-0.1-0.1-0.1-0.1-0.2-0.2-0.3 0.1-0.5 0.3-0.8 0.4-0.1 0-0.1 0.1-0.2 0.2-0.1 0.2-0.3 0.2-0.5 0.2-0.1 0-0.2-0.1-0.1-0.2 0.1-0.2 0.2-0.4 0.5-0.3 0 0 0.1 0 0.1-0.1 0.2-0.2 0.4-0.5 0.7-0.7-0.1-0.3-0.3-0.5-0.4-0.7-0.1-0.1-0.1-0.2-0.1-0.4 0-0.1 0-0.1-0.1-0.2 0 0-0.1 0-0.2 0.1-0.1 0.1-0.3 0.2-0.5 0 0-0.1 0-0.2 0.1-0.3l0.1-0.1c0.3-0.1 0.3-0.4 0.3-0.7v-0.1c-0.1-0.2-0.1-0.3 0.1-0.5 0.3-0.2 0.6-0.6 0.7-0.9 0.1-0.2 0.3-0.3 0.5-0.5 0.2-0.2 0.4-0.4 0.5-0.7h0.1c0.4 0.1 0.5-0.2 0.7-0.5 0-0.1 0-0.2 0.1-0.2 0.2-0.2 0.2-0.4 0.1-0.7 0-0.1-0.1-0.3-0.1-0.4 0-0.1 0-0.1-0.1-0.2-0.3-0.2-0.3-0.4 0-0.6 0.2-0.1 0.2-0.3 0.3-0.4 0.1-0.2 0.1-0.4 0.1-0.7-0.1-0.3-0.1-0.7-0.2-1-0.1-0.4-0.2-0.9-0.3-1.3 0-0.1 0-0.1 0-0.2 0-0.3 0-0.5-0.1-0.8-0.1-0.1-0.1-0.3-0.1-0.4-0.1-0.3-0.2-0.5-0.5-0.6-0.3-0.2-0.7-0.3-1-0.5-0.1-0.1-0.2 0-0.3 0.1-0.1 0.2-0.3 0.4-0.4 0.6-0.1 0.1-0.2 0.3-0.3 0.5-0.2 0.2-0.6 0.4-0.9 0.1-0.1-0.2-0.2-0.3 0-0.5 0.2-0.3 0.4-0.6 0.7-0.8 0.1-0.1 0.2-0.3 0.3-0.4 0.1-0.2 0.1-0.4 0.1-0.6-0.1-0.4-0.2-0.8-0.2-1.3 0-0.5 0-0.9 0.1-1.4 0.1-0.2 0.1-0.5 0.2-0.7 0-0.1 0.1-0.3 0.2-0.4 0.2-0.2 0.4-0.4 0.5-0.7 0.1-0.3 0.3-0.6 0.3-0.9 0-0.1 0.1-0.2 0.1-0.3 0-0.1 0.1-0.3 0.1-0.4-0.1-0.3 0-0.5 0.1-0.7 0.1-0.2 0.2-0.5 0.3-0.7 0.2-0.4 0.2-0.9 0.6-1.3 0.1-0.2 0.2-0.4 0.3-0.6 0.1-0.4 0.3-0.7 0.5-1 0.1-0.1 0.1-0.1 0.1-0.2 0.1-0.3 0.3-0.6 0.5-0.9 0.2-0.3 0.2-0.6 0.3-0.9 0-0.1 0-0.2 0.1-0.3 0.3-0.3 0.2-0.7 0.1-1.1-0.2-0.5-0.3-1-0.2-1.5 0-0.1 0-0.2 0.1-0.2 0.1-0.2 0.1-0.3 0.2-0.5v-0.1c0.2-0.2 0.4-0.5 0.7-0.6 0.4-0.2 0.8-0.3 1.3-0.4 0.4 0 0.8-0.2 1.1-0.6 0-0.1 0.1-0.1 0.2-0.2l0.1-0.1c0.1-0.2 0.2-0.3 0.3-0.4 0.2-0.2 0.4-0.5 0.6-0.7 0.2-0.2 0.4-0.5 0.7-0.8l0.1-0.1c0.2-0.2 0.4-0.4 0.6-0.5 0.2-0.2 0.4-0.4 0.6-0.6 0.2-0.2 0.3-0.4 0.5-0.6 0.2-0.1 0.4-0.3 0.6-0.5 0.2-0.2 0.4-0.4 0.5-0.5 0.2-0.2 0.5-0.4 0.7-0.5 0.2-0.1 0.4-0.2 0.5-0.5 0.1-0.3 0.2-0.5 0.3-0.8 0-0.2 0.1-0.4 0.2-0.6 0.1 0 0.2 0 0.4-0.1-0.1-0.1-0.2-0.1-0.2-0.2 0-0.1 0.1-0.2 0.1-0.2 0-0.1 0.1-0.2 0.1-0.3 0 0 0.1 0 0.1-0.1 0 0 0.1 0 0.1-0.1-0.2 0.1-0.3 0-0.4-0.1 0.1 0.1 0.2 0.1 0.4 0.2 0 0 0.1 0 0.1-0.1 0-0.1 0-0.2 0-0.2 0 0-0.1 0-0.2 0-0.1 0-0.2 0.1-0.3 0.1zM54 70.5c0-0.1-0.1-0.1-0.1-0.2-0.1-0.2 0-0.3 0.1-0.4 0.1-0.1 0.2-0.1 0.4-0.1 0.2 0.1 0.3 0.2 0.3 0.4 0 0.1 0 0.3 0 0.4 0.1 0.4 0.1 0.4 0.5 0.4 0.2 0 0.4 0 0.6 0 0.4-0.1 0.8-0.3 1.2-0.4 0.4-0.1 0.8-0.2 1.2-0.3 0.1 0 0.2 0 0.4 0 0.4 0.1 0.7 0 1-0.2 0.1-0.1 0.3-0.1 0.4-0.2 0.2-0.1 0.4-0.1 0.6-0.2 0.5-0.3 1-0.5 1.4-0.8 0.3-0.2 0.6-0.4 0.9-0.6 0.3-0.2 0.6-0.4 0.9-0.6 0.2-0.1 0.5-0.3 0.7-0.5 0.4-0.3 0.7-0.6 1.1-0.8 0.2-0.1 0.3-0.2 0.4-0.3 0.2-0.1 0.3-0.3 0.5-0.4 0.1-0.1 0.2-0.2 0.4-0.3 0.1-0.1 0.1-0.1 0.1-0.2 0.3-0.2 0.6-0.6 0.8-0.9 0.2-0.2 0.4-0.4 0.6-0.7 0.3-0.3 0.5-0.7 0.8-1.1 0.2-0.2 0.4-0.5 0.5-0.7 0.2-0.4 0.4-0.8 0.7-1.1v-0.1c0.2-0.4 0.4-0.8 0.6-1.2 0.3-0.5 0.5-1.1 0.8-1.6 0.1-0.2 0.2-0.4 0.2-0.6 0.2-0.4 0.3-0.8 0.4-1.2 0-0.1 0-0.1 0.1-0.2 0.3-0.6 0.5-1.2 0.6-1.9 0.1-0.4 0.2-0.8 0.3-1.2 0.2-0.6 0.2-1.1 0.3-1.7 0.1-0.4 0.1-0.9 0.1-1.3 0.1-0.6 0.1-1.3 0-1.9 0-0.5-0.1-1.1-0.1-1.6 0-0.5-0.1-0.9-0.2-1.4-0.1-0.5-0.2-0.9-0.3-1.4-0.2-0.4-0.3-0.8-0.4-1.3-0.1-0.4-0.3-0.7-0.3-1.1 0-0.3-0.1-0.6-0.4-0.7-0.3-0.1-0.5-0.2-0.8-0.4-0.6-0.4-0.9-0.9-0.8-1.5 0-0.3 0.1-0.7 0.2-1 0.1-0.3 0.2-0.6 0-0.8-0.1-0.3-0.3-0.5-0.4-0.7-0.2-0.3-0.3-0.5-0.5-0.7-0.2-0.4-0.4-0.8-0.7-1.1-0.4-0.5-0.7-1-1.2-1.4l-0.1-0.1c-0.3-0.4-0.6-0.8-1-1.1-0.2-0.2-0.4-0.4-0.6-0.5-0.1-0.1-0.2-0.2-0.4-0.3-0.3-0.2-0.6-0.3-0.8-0.5-0.3-0.3-0.7-0.5-1-0.7 0 0-0.1 0-0.1-0.1-0.4-0.2-0.7-0.3-1.1-0.5-0.4-0.2-0.8-0.3-1.2-0.3-0.1 0-0.1 0-0.2 0-0.1-0.1-0.3-0.1-0.4-0.1-0.1 0-0.1 0-0.2 0-0.2-0.1-0.5 0-0.7 0-0.4 0.1-0.8 0.1-1.2-0.1-0.5-0.2-0.9-0.4-1.3-0.6-0.3-0.2-0.5-0.4-0.8-0.6-0.6-0.5-1.2-1.1-1.9-1.6 0.1-0.5-0.1-0.6-0.5-0.6-0.2 0-0.4 0.1-0.6 0.2-0.1 0.1-0.1 0.1-0.2 0.2-0.3 0.2-0.5 0.5-0.8 0.7-0.5 0.3-0.7 0.2-1.1 0-0.1-0.1-0.2-0.2-0.3-0.3-0.2-0.2-0.4-0.5-0.5-0.7-0.2-0.4-0.6-0.4-1-0.4-0.2 0-0.5 0.1-0.7 0.1-0.4 0-0.8 0.2-1 0.5-0.2 0.3-0.4 0.6-0.7 0.9-0.1 0.1-0.3 0.2-0.4 0.4-0.2 0.2-0.4 0.2-0.6 0-0.1-0.1-0.2-0.1-0.3-0.2-0.1 0.1-0.2 0.2-0.2 0.3-0.1 0.2-0.2 0.4-0.3 0.7-0.1 0.3-0.3 0.6-0.5 0.8-0.1 0.1-0.1 0.1-0.2 0.2-0.1 0.2-0.4 0.3-0.6 0.3-0.2 0.2-0.4 0.5-0.5 0.7-0.1 0.2-0.2 0.4-0.3 0.7-0.1 0.1-0.1 0.3-0.2 0.4-0.1 0.2-0.1 0.3-0.1 0.5 0.1 0.3-0.1 0.4-0.4 0.5-0.2 0-0.2 0-0.3 0.2 0 0.3 0.1 0.5 0.2 0.8 0.1 0.1 0.2 0.3 0.2 0.4 0 0.2 0.1 0.3 0.3 0.4 0.1 0.1 0.2 0.2 0.3 0.2 0.1 0 0.1 0.1 0.2 0.1 0.1 0.1 0.2 0 0.2-0.1 0.1-0.3 0.2-0.6 0.2-0.9 0.1-0.4 0.1-0.7 0.2-1.1 0.1-0.2 0.2-0.3 0.3-0.4 0 0 0.1 0 0.2 0v0.1c-0.1 0.5-0.3 1.1-0.4 1.6-0.1 0.2-0.1 0.4-0.2 0.6 0 0.1-0.1 0.2-0.2 0.2-0.2 0.1-0.4 0.2-0.6 0.2-0.1 0-0.2 0-0.3 0-0.2-0.1-0.4-0.3-0.6-0.4-0.1-0.1-0.2-0.2-0.3-0.3-0.1-0.2-0.2-0.4-0.3-0.6-0.1-0.2-0.2-0.3-0.4-0.4-0.1-0.1-0.2-0.1-0.3-0.2-0.2-0.2-0.4-0.3-0.7-0.3-0.1 0-0.3 0-0.4 0-0.1 0-0.3 0.1-0.4 0.2-0.2 0.1-0.3 0.1-0.5 0-0.5-0.2-1-0.1-1.5 0.1-0.2 0.1-0.4 0.2-0.6 0.2-0.5 0-0.9 0-1.4 0-0.5 0-0.9-0.1-1.4-0.2-0.2 0-0.4 0-0.6 0-0.4 0.1-0.5 0.4-0.4 0.8 0.1 0.4 0.2 0.9 0.2 1.3 0 0.3 0 0.6 0 0.9 0 0.2 0 0.3 0 0.5 0 0.3-0.1 0.6-0.1 0.9-0.1 0.6-0.4 1.1-0.8 1.5-0.3 0.3-0.7 0.6-1.1 0.7-0.2 0.1-0.4 0.2-0.7 0.3-0.5 0.2-0.9 0.6-1.2 1.1-0.1 0.2-0.2 0.4-0.3 0.6-0.2 0.3-0.3 0.5-0.5 0.8-0.1 0.2-0.3 0.4-0.4 0.6-0.1 0.2-0.3 0.3-0.3 0.5-0.2 0.4-0.3 0.8-0.5 1.2-0.1 0.2-0.1 0.5-0.2 0.7-0.2 0.4-0.2 0.8-0.2 1.3 0 0.1 0 0.2 0 0.4 0 0.5-0.1 1.1-0.1 1.6 0 0.5 0 1 0.1 1.5 0 0.2 0 0.5 0 0.7 0 0.4 0.1 0.9 0.1 1.3 0 0.4 0 0.9 0.2 1.3v0.1c0.1 0.4 0.1 0.8 0.2 1.2 0 0.1 0 0.2 0.1 0.3 0.2 0.6 0.3 1.1 0.5 1.7 0.1 0.4 0.3 0.8 0.4 1.2 0.1 0.4 0.5 0.8 0.6 1.3v0c0.3 0.6 0.6 1.2 1 1.8 0.1 0.2 0.3 0.4 0.4 0.6 0.2 0.3 0.3 0.6 0.5 0.8 0.1 0.2 0.3 0.4 0.4 0.5 0.1 0.2 0.2 0.4 0.4 0.6 0.2 0.2 0.4 0.5 0.6 0.7 0.3 0.5 0.7 0.9 1.1 1.2 0.2 0.2 0.4 0.3 0.6 0.5 0.1 0.1 0.2 0.1 0.2 0.2 0.1 0.1 0.2 0.2 0.4 0.3 0.8 0.4 1.4 1 2.1 1.6 0.3 0.3 0.6 0.6 1 0.8 0.4 0.3 0.7 0.6 1.2 0.7 0 0 0.1 0 0.1 0.1 0.2 0.2 0.5 0.3 0.7 0.4 0.4 0.2 0.9 0.4 1.3 0.6 0.1 0.1 0.3 0.1 0.4 0.2 0.3 0.1 0.6 0.2 0.9 0.3 0.3 0.1 0.5 0.2 0.8 0.2h0.1c0.2 0.1 0.3 0.1 0.5 0 0.1 0 0.2 0 0.2 0.1 0 0.1 0.1 0.1 0.2 0.1 0.1 0 0.2 0 0.4 0 0.1-0.1 0.1-0.2 0.2-0.4 0.1 0.1 0.2 0.1 0.2 0.1 0.1 0.2 0.3 0.2 0.5 0.2h0.1c0.2 0 0.3 0 0.4-0.1 0-0.1 0.2-0.1 0.3-0.1 0.3 0.1 0.6 0.1 0.9 0.2 0.2 0.1 0.5 0.1 0.6-0.1 0.1-0.1 0.2-0.2 0.4-0.1 0.2 0.1 0.3 0.1 0.5 0 0.1 0 0.2 0 0.2 0 0.3 0.1 0.5 0.1 0.8 0.2 0.4 0.1 0.4 0.1 0.7-0.2 0.1-0.1 0.3-0.1 0.4 0 0.1 0.2 0.1 0.3 0.1 0.5 0.1 0 0.1 0 0.2-0.1 0-0.2 0.1-0.2 0.3-0.3 0.1 0.1 0.1 0.1 0.2 0.1 0.2 0.2 0.3 0.2 0.4-0.1 0-0.1 0-0.2 0.1-0.2 0.1 0 0.2 0.1 0.2 0.1 0.1 0.2 0.3 0.3 0.4 0.5 0.2 0.2 0.5 0.2 0.6 0 0.1-0.1 0.2-0.1 0.3-0.1 0-0.1 0-0.2 0-0.3 0.3 0.2 0.2 0.2 0.1 0.2zM37.4 23.8c0.3 0.1 0.5 0.1 0.6-0.1-0.2 0.1-0.4-0.1-0.6 0.1z" fill="#fbfbf8" fill-rule="nonzero" stroke="none" stroke-width="1" stroke-linecap="butt" stroke-linejoin="miter" stroke-miterlimit="10" stroke-dasharray="" stroke-dashoffset="0" font-family="none" font-weight="none" font-size="none" text-anchor="none" style="mix-blend-mode: normal" data-fill-palette-color="tertiary"></path></g><g transform="matrix(1,0,0,1,70.65828853882726,90)"><svg viewBox="0 0 178.68342292234547 180" height="180" width="178.68342292234547"><g><svg viewBox="0 0 178.68342292234547 180" height="180" width="178.68342292234547"><g><svg viewBox="0 0 192 193.4146964210526" height="180" width="178.68342292234547"><g transform="matrix(1,0,0,1,0,116.90341822556391)"><svg viewBox="0 0 192 76.51127819548871" height="76.51127819548871" width="192"><g id="textblocktransform"><svg viewBox="0 0 192 76.51127819548871" height="76.51127819548871" width="192" id="textblock"><g><svg viewBox="0 0 192 76.51127819548871" height="76.51127819548871" width="192"><g transform="matrix(1,0,0,1,0,0)"><svg width="192" viewBox="1 -35.6 93.1 37.1" height="76.51127819548871" data-palette-color="#fbfbf8"><g class="undefined-text-0" data-fill-palette-color="primary" id="text-0"><path d="M6.05-17.25L6.05-20.1 6.1-25.5Q6.1-29.3 5.8-31.45L5.8-31.45Q5.65-32.7 4.48-33.4 3.3-34.1 2.43-34.1 1.55-34.1 1.28-34.43 1-34.75 1-34.95L1-34.95Q1-35.5 2.4-35.5L2.4-35.5 8.05-35.3 12.45-35.4Q13.55-35.4 13.55-34.7L13.55-34.7Q13.55-33.85 11.8-33.85L11.8-33.85Q10.8-33.85 10.35-31.8 9.9-29.75 9.9-27.6L9.9-27.6 9.9-25.75 9.8-21.15Q9.8-19.9 10.1-19.55 10.4-19.2 11.5-19.2L11.5-19.2 19.7-19.25Q19.7-19.25 29.15-19.15L29.15-19.15Q29.7-19.15 29.7-26.1L29.7-26.1 29.7-28.8Q29.7-32.55 28.2-33.4L28.2-33.4Q27.6-33.75 26.98-33.85 26.35-33.95 25.93-34.13 25.5-34.3 25.5-34.8 25.5-35.3 27.45-35.3L27.45-35.3 32.3-35.2 36.2-35.3Q37.35-35.3 37.35-34.65 37.35-34 36.65-34L36.65-34Q35.25-34 34.52-33.15 33.8-32.3 33.8-30.9L33.8-30.9 33.55-11.25 33.55-9.4 33.75-4.8Q33.75-1.55 37.95-1.1L37.95-1.1Q38.55-1.1 38.55-0.55L38.55-0.55Q38.55-0.2 38.05-0.1 37.55 0 36.1 0L36.1 0 32.25-0.25 27.55 0 26.7 0Q26 0 25.88-0.2 25.75-0.4 25.75-0.68 25.75-0.95 26.25-1.2 26.75-1.45 27.35-1.6 27.95-1.75 28.5-2.2L28.5-2.2Q29.55-2.95 29.55-6.9L29.55-6.9 29.7-15.75Q29.7-16.5 29.1-16.8 28.5-17.1 27.15-17.1 25.8-17.1 23.1-17L23.1-17 20.4-16.95 11.2-17.1Q10.45-17.1 10.2-16.8 9.95-16.5 9.95-15.25L9.95-15.25 9.75-9.1 9.75-6.95Q9.75-4.8 10.15-3.75 10.55-2.7 12.1-1.7L12.1-1.7Q12.5-1.45 13.55-1.45L13.55-1.45Q15.2-1.45 15.2-0.9L15.2-0.9Q15.2 0 13.6 0L13.6 0 9.45-0.2 4.05 0.05Q1.7 0.05 1.7-0.7L1.7-0.7Q1.7-1.4 3.25-1.6L3.25-1.6Q3.85-1.65 4.5-2.23 5.15-2.8 5.35-3.78 5.55-4.75 5.8-9.05 6.05-13.35 6.05-17.25L6.05-17.25ZM85.5-35.5L88.65-35.45 93.1-35.55Q94.1-35.55 94.1-34.85L94.1-34.85Q94.1-34.5 93.82-34.3 93.55-34.1 93-33.8 92.45-33.5 92.12-33.18 91.8-32.85 91.62-32.6 91.45-32.35 91.25-31.98 91.05-31.6 90.95-31.35L90.95-31.35Q90.6-30.7 84.15-16.13 77.7-1.55 77-0.1 76.3 1.35 75.9 1.35L75.9 1.35Q75.4 1.35 73.6-3.1L73.6-3.1Q73.1-4.2 72.27-6.15 71.45-8.1 70.87-9.45 70.3-10.8 69.7-12.2L69.7-12.2Q68.5-15.05 68.15-15.05L68.15-15.05Q67.65-15.05 64.77-8.15 61.9-1.25 61.77-0.75 61.65-0.25 61.57-0.05 61.5 0.15 61.45 0.3 61.4 0.45 61.35 0.6 61.3 0.75 61.25 0.85 61.2 0.95 61.17 1.05 61.15 1.15 61.1 1.23 61.05 1.3 61 1.35 60.95 1.4 60.9 1.4L60.9 1.4Q60.75 1.5 60.65 1.5L60.65 1.5Q60.2 1.5 59.55 0.08 58.9-1.35 57.2-5.53 55.5-9.7 53.17-14.8 50.85-19.9 47.6-27.9L47.6-27.9Q46.65-30.3 45.55-31.68 44.45-33.05 43.6-33.4 42.75-33.75 42.05-33.8 41.35-33.85 40.95-34 40.55-34.15 40.55-34.8 40.55-35.45 41.9-35.45L41.9-35.45 47.4-35.3 51.7-35.45Q52.15-35.45 52.27-35.33 52.4-35.2 52.4-34.88 52.4-34.55 51.32-34 50.25-33.45 50.25-32.5L50.25-32.5Q50.25-31.5 51.75-28.25L51.75-28.25Q56.75-17.05 58.32-13.35 59.9-9.65 60.4-8.5L60.4-8.5Q61.4-6.3 61.7-6.3L61.7-6.3Q61.9-6.3 63.3-9.4 64.7-12.5 65.35-14.1 66-15.7 66.25-16.25L66.25-16.25Q66.8-17.3 66.8-17.93 66.8-18.55 63.8-25.3L63.8-25.3Q60.5-32.6 59.55-33.35L59.55-33.35Q58.75-33.95 58.25-33.95L58.25-33.95 57.7-34Q56.3-34.15 56-34.27 55.7-34.4 55.7-34.8L55.7-34.8Q55.7-35.5 57.15-35.5L57.15-35.5 62.65-35.3 65.95-35.5Q67.45-35.5 67.45-35.15 67.45-34.8 66.9-34.5L66.9-34.5Q65.3-33.65 65.3-32.63 65.3-31.6 66.85-28.1L66.85-28.1Q66.95-27.9 67.55-26.45L67.55-26.45Q68.85-23.05 69.22-23.05 69.6-23.05 71.2-27.43 72.8-31.8 72.8-32.65 72.8-33.5 72.05-33.88 71.3-34.25 70.55-34.43 69.8-34.6 69.8-35L69.8-35Q69.8-35.55 70.9-35.55L70.9-35.55 74.1-35.45 74.95-35.45Q75.65-35.45 77.6-35.6L77.6-35.6 78.05-35.6Q78.7-35.6 78.7-35.1 78.7-34.6 77.75-34.3 76.8-34 76.22-33.43 75.65-32.85 74.82-30.83 74-28.8 72.52-25.35 71.05-21.9 70.8-21.2 70.55-20.5 70.55-20.03 70.55-19.55 73.6-12.75 76.65-5.95 77.22-5.95 77.8-5.95 83.02-18.57 88.25-31.2 88.25-32.23 88.25-33.25 87.67-33.68 87.1-34.1 86.4-34.2L86.4-34.2Q84.55-34.35 84.55-35L84.55-35Q84.55-35.35 84.7-35.43 84.85-35.5 85.5-35.5L85.5-35.5Z" fill="#fbfbf8" data-fill-palette-color="primary"></path></g></svg></g></svg></g></svg></g></svg></g><g transform="matrix(1,0,0,1,55.090659445686185,0)"><svg viewBox="0 0 81.81868110862763 105.73858646616542" height="105.73858646616542" width="81.81868110862763"><g><svg xmlns="http://www.w3.org/2000/svg" xmlns:xlink="http://www.w3.org/1999/xlink" version="1.1" x="0" y="0" viewBox="12.983 1 75.68599999999999 97.813" enable-background="new 0 0 100 100" xml:space="preserve" height="105.73858646616542" width="81.81868110862763" class="icon-icon-0" data-fill-palette-color="accent" id="icon-0"><g fill="#ffff00" data-fill-palette-color="accent"><polygon fill-rule="evenodd" clip-rule="evenodd" points="12.983,10.59 30.001,98.813 24.129,39.764 53.15,37.872 53.096,27.989    64.549,1 53.622,18.977  " fill="#ffff00" data-fill-palette-color="accent"></polygon><polygon fill-rule="evenodd" clip-rule="evenodd" points="59.389,54.548 64.549,1.007 55.809,40.723 36.197,41.768 37.767,62.23    30.001,98.813 42.058,58.914  " fill="#ffff00" data-fill-palette-color="accent"></polygon><polygon fill-rule="evenodd" clip-rule="evenodd" points="62.8,67.182 63.349,56.729 47.37,60.484 47.338,72.281 30.001,98.813    51.681,71.197  " fill="#ffff00" data-fill-palette-color="accent"></polygon><polygon fill-rule="evenodd" clip-rule="evenodd" points="65.711,62.394 80.552,57.663 82.061,45.131 66.162,47.226  " fill="#ffff00" data-fill-palette-color="accent"></polygon><polygon fill-rule="evenodd" clip-rule="evenodd" points="72.07,44.502 83.058,43.085 84.639,32.807 76.56,32.434 64.549,1    72.979,31.967  " fill="#ffff00" data-fill-palette-color="accent"></polygon><polygon fill-rule="evenodd" clip-rule="evenodd" points="87.413,31.294 88.669,21.788 79.125,19.094 64.549,1 79.032,23.437    78.61,30.437  " fill="#ffff00" data-fill-palette-color="accent"></polygon></g></svg></g></svg></g><g></g></svg></g></svg></g></svg></g></svg></g><defs></defs></svg><rect width="320" height="360" fill="none" stroke="none" visibility="hidden"></rect></g></svg></g></svg>